<?xml version="1.0" encoding="UTF-8"?>
<svg version="1.1" viewBox="0 0 2048 2048" width="1280" height="1280" xmlns="http://www.w3.org/2000/svg">
<path transform="translate(671)" d="m0 0h34l23 6 16 6 23 11 16 10 14 10 13 10 13 11 14 11 4 2 9-1 27-12 28-10 21-6 25-5 19-3 19-2 25-1h20l25 1 32 4 22 4 27 7 33 12 25 11 9 1 8-5 14-12 16-13 18-13 20-12 16-8 20-8 22-6h35l21 6 16 8 9 7 8 8 8 13 6 13 3 12 1 8v28l-2 18-6 27-9 29-13 32-16 32-12 20-12 18-9 12-1 4 5 23 4 27 2 27v22l-2 26-3 20-7 28-7 20-8 16-9 14-11 13-9 9-8 7-12 11-10 9-25 25-7 8-24 28-11 15-6 16-5 12-7 13-12 15 4 2 17 13 19 14 17 12 16 12 18 13 14 11 11 9 14 12 15 14 7 8 9 10 8 13 7 15 5 17 3 21v21l-2 22-9 48-10 46-20 85-9 41-1 3 35 1 17 2 16 4 12 6 10 8 8 9 8 14 7 16 9 27 19 64 17 48 18 51 5 18h1l5-27v-32l-5-38-10-58-12-64-7-36-10-54-6-36-14-78-6-40-3-30-1-16v-29l3-34 5-28 8-27 8-21 12-23 7-11 14-19 11-12 13-13 19-14 18-11 19-9 19-6 19-4 14-2 20-1 21 2 21 4 18 5 20 8 20 10 12 8 11 8 12 11 8 7 13 14 13 18 9 15 11 23 7 19 5 21 3 17 1 13v16l-2 31-5 27-7 25-8 21-11 23-10 16-11 12-9 7-12 6-13 4h-24l-14-4-11-6-10-8-7-7-7-11-5-12-2-7v-27l5-15 12-22 6-13 5-17 2-13v-22l-4-18-7-16-7-10-8-8-14-9-12-5-7-2-17-1-10 2-12 6-10 8-8 10-10 17-7 19-3 14-2 16v26l1 19 4 33 13 78 12 65 27 148 10 56 5 39 2 28v22l-3 31-6 28-7 21-9 20-12 20-10 13-12 14-9 9-11 9-13 10-21 13-30 15-7 4-6 12-13 21-12 17-14 19-13 18-22 33-10 19-7 21-2 12v24l4 19 7 16 6 11 9 12 11 12 25 17 10 8 10 9 8 10 8 13 5 11 4 13 1 6v24l-3 13-7 14-9 10-7 6-15 8-18 6-25 5-15 2h-85l-32-5h-13l-32 5h-87l-35-6-18-5-16-8-9-7-8-8-7-11-5-17-1-13 1-3-4 1-15 1h-50l-16-1-3 22-5 13-8 11-7 7-11 7-16 7-19 5-24 4-7 1h-88l-30-5h-13l-33 5h-84l-41-7-18-6-16-9-8-7-8-11-5-10-3-10-1-7v-17l3-15 6-16 8-14 11-13 9-9 15-11 16-10 15-15 10-14 10-21 4-14 2-14v-15l-2-14-5-17-7-16-10-17-15-22-13-18-14-19-12-17-11-17-10-18-9-21-6-21-4-24-1-11v-19l3-32 3-19 6-26 9-30 12-35 9-25 13-37 17-57 12-36 8-16 7-11 11-11 14-8 13-4 21-3h37l-6-25-8-36-15-64-12-54-8-44-2-15v-34l3-16 4-15 7-16 7-11 8-10 14-15 8-8 8-7 13-11 14-11 16-12 14-10 19-14 17-12 19-14 11-9-2-5-6-7-8-13-6-14-5-15-10-14-9-11-12-14-10-11-7-8-27-27-8-7-13-12-8-7-7-7-10-13-9-15-7-15-7-22-5-21-4-26-1-14v-37l3-29 5-28 2-9v-7l-10-13-10-15-13-22-14-27-9-21-9-24-7-23-5-24-2-12v-39l4-17 8-16 7-10 7-8 10-7 17-8z" fill="#020202"/>
<path transform="translate(885,721)" d="m0 0 4 1 6 7 10 14 9 11 9 9 14 11 15 9 12 6 20 7 12 3 20 2h17l18-2 22-6 15-6 15-8 13-9 12-11 6-5 9-11 10-14 7-8 4 1 11 11 17 13 54 39 19 14 13 10 17 14 4 4-10 8-10 9-6 8-7 14-4 16v19l4 16 7 14 7 9 2 4 4 2 9 7 14 7 17 4h5l1 4-8 36-2 3-7-14-11-12-10-7-13-5-11-2h-9l-15 3-16 8-11 10-7 11-5 13-2 11 1 15 4 13 6 11 10 11 8 6 11 5 13 3h15l15-4 13-7 4-4h2l1-2-1 7-7 28-1 3-24 3-15 4-16 8-10 7-10 9-10 12-10 19-5 17-1 7v24l3 15 6 15 6 11 11 14 11 10 17 10 8 4 1 5-3 26-5 46-2 27-1 7-20 5-16 8-11 9-7 8-8 14-4 11-2 13v9l2 14 6 16 7 11 8 9 13 9 10 5 13 4 1 1v13l-5 1h-24l-12 4-11 6-12 11-8 14-4 12-1 6v12l4 16 5 10 7 9 7 7 14 8 14 4h18l7-1 2 43 2 68 3 51v16l-12-1-13-2h-29l-25 4-9 2-1-1-6-88-5-93-3-67-2-90-1-24-3-27-6-29-1-7v-21l3-20 2-12 1-3 9 9 11 7 10 4 9 2h17l16-5 12-7 8-7 7-10 5-11 3-12v-17l-5-16-7-12-2-4h-2l-5-5-10-7-13-5-10-2-17 1-13 4-4 2 1-14 3-30 2-26v-54l-2-21-5-29-6-21-6-16-10-21-12-18-9-11-5-6-16-14-15-10-19-9-15-4-7-1h-24l-16 3-16 6-14 8-16 12-13 12-9 11-10 14-10 18-10 25-6 21-5 28-2 22v58l3 40 3 27-5-2-13-4-6-1h-11l-16 4-12 6-11 9-6 8-7 14-2 8v21l4 13 5 10 7 9 8 7 12 7 16 4h16l16-5 11-6 12-11 2 2 2 14 3 22v15l-3 19-5 24-1 8-1 19-3 103-2 52-6 116-6 87-4 1-12-3-20-3h-28l-21 3h-5l2-40 2-24 2-76 2-37h23l12-3 14-7 12-11 8-13 5-15 1-11-1-11-4-12-6-11-8-10-10-7-13-6-7-2h-27v-15l15-5 11-6 10-8 9-10 8-14 4-13 1-5v-22l-4-14-7-14-10-13-12-9-15-7-18-5-1-3-2-29-5-46-3-26-1-7 16-8 14-10 11-11 10-15 7-16 4-14 1-8v-18l-3-16-5-14-6-12-9-12-7-8-15-11-16-8-17-5-14-2h-7l-2-2-8-33v-2l3 1 4 4 14 7 13 3h16l12-3 12-6 10-8 8-10 5-10 4-13v-20l-5-15-7-12-6-7-10-7-13-6-8-2h-22l-15 5-11 7-8 7-7 10-3 8-2-1-7-31-1-8 10-2 16-5 11-6 10-8 8-9 8-14 5-15 1-8v-13l-3-15-4-9-6-11-6-8-2-1v-2l-4-2-12-9 1-3 8-6 12-10 16-12 19-14 36-26 14-10 13-10 14-12z" fill="#F9BC58"/>
<path transform="translate(685,40)" d="m0 0h9l17 3 19 7 16 8 18 11 16 12 14 11 12 11 10 7 10 5 8 2h21l16-6 17-8 8-3 5 1 8 16 7 9 13 10 12 5 6 1h17l13-4 11-6 9-8 9-14 5-12 2-9 1-11h19l1 1 2 16 4 12 6 11 11 12 13 8 14 4h15l16-4 11-7 10-10 7-11 4-10 7 1 21 9 11 5 7 2h22l15-6 11-8 11-10 10-8 19-14 14-9 18-10 16-7 16-4 9-1h10l14 1v3l-16 6-16 8-12 8-10 8-4 2v2l-7 6-7 8-10 13-8 13-4 8v8l4 8 2 5-10 14-10 19-6 19-1 5v23l4 13 6 11 10 13 15 15 20 15 9 7 4 13 5 32 2 20v35l-3 27-4 19-2 6-2 1-25 3-28 7-21 8-27 14-7 5h-3l-12-18-9-12-9-11-11-12-15-15-8-7-13-11-19-14-10-7-8-4h-9l-8 4-5 6-2 11 4 10 12 17 14 19 10 15 9 15 9 17 7 18 3 11v3l-14-1h-27l-7 2h-9l-4-2-24-4-24-1h-31l-20 1-23 4-5 2h-8l-8-2h-28l-13 2 3-12 7-19 8-16 8-14 15-22 14-19 10-14 4-11-2-9-4-6-7-4-4-1h-7l-9 4-19 14-16 13-14 12-5 5h-2l-1 3-8 7-11 12-9 11-12 17-9 14-14-8-19-10-14-6-21-7-25-5-18-2-3-6-4-19-3-29v-37l4-33 5-25 3-6 13-9 14-11 10-9 7-7 11-16 6-13 3-14-1-15-5-19-10-21-12-18 1-4 3-5 2-4v-8l-9-16-12-16-11-12-9-9-15-11-16-9-15-6-9-4v-1z" fill="#F9BC58"/>
<path transform="translate(1021,1028)" d="m0 0 16 1 12 4 11 6 10 8 10 9 10 11 10 16 8 16 7 21 5 23 3 25v58l-2 30-4 34-5 29-14 64-4 22-2 18v17l3 20 5 24 2 21 1 27 2 78 2 53 5 99 6 90 2 32-16 12-12 11-13 17-2 2-23 4-20 2h-20l-36-4-8-3-7-8-7-9-11-11-17-13 1-26 3-39 4-64 5-101 3-84 2-71 3-21 6-30 1-12v-11l-3-26-7-34-9-40-6-34-4-34-2-27-1-44 1-22 4-28 5-20 6-17 8-16 8-13 8-10 13-13 14-10 12-6 8-2z" fill="#F4DACA"/>
<path transform="translate(678,1202)" d="m0 0h49l4 16 3 18 4 23 4 27 3 19 6 48 5 53 2 31 2 28 2 44 2 38v175l-1 42-3 57-2 35-2 23-6-2-17-7-18-5-25-4-24-1 8-18 5-15 4-20 1-9v-15l-4-26-5-17-8-18-11-20-10-15-13-19-10-13-13-18-14-20-12-20-8-17-6-18-4-20-1-11v-25l3-1h15l14-2 13-4 16-8 11-7 7-7h2l2-4 6-7 8-13 6-15 4-17v-26l-5-19-6-14-8-12-5-6v-2h-2l-5-5-8-7-15-9 2-9 19-64 6-17 6-12 9-10 10-5z" fill="#F9BC58"/>
<path transform="translate(1322,1202)" d="m0 0h47l14 4 9 7 6 8 8 18 8 26 12 41 3 10v5l-14 8-11 9-7 7-9 13-8 16-5 19v30l5 19 5 12 7 11 11 13 11 9 15 9 13 5 20 4 20 1v27l-3 22-6 20-9 21-11 19-14 20-14 19-13 18-12 17-10 16-9 16-8 18-5 16-4 23v26l5 24 6 17 6 12v3l-25 1-24 4-21 6-16 7h-3l-3-34-2-51-2-31-1-33v-187l1-24 2-23 2-53 2-19 2-34 2-15 2-24 3-24 6-42 4-26 4-23 4-21 3-11z" fill="#F9BC58"/>
<path transform="translate(1205,1902)" d="m0 0 22 1 12 2 16 5 16 7 12 8 10 9 8 9 7 15 2 12-1 12-3 6-7 7-12 5-15 4-13 2-12 1-28 1h-16l-32-1-21-2-16-3-13-5-6-4-6-7-3-9v-9l3-11 9-16 11-12 14-10 16-8 15-5 16-3z" fill="#F4DACA"/>
<path transform="translate(836,1902)" d="m0 0 21 1 16 3 16 5 17 9 11 8 8 7 9 13 6 13 1 3v16l-4 9-8 7-10 4-16 4-14 2-12 1-28 1h-14l-34-1-20-2-15-3-15-6-7-5-5-8-1-4v-13l3-12 6-11 11-13 14-10 15-8 14-5 12-3z" fill="#F4DACA"/>
<path transform="translate(871,795)" d="m0 0h19l16 4 14 7 13 10 8 10 7 12 5 16 1 5v16l-3 14-5 12-7 11-9 10-10 8-17 8-16 3h-10l-13-2-13-4-12-7-11-9-9-11-7-14-4-16v-21l4-15 8-16 11-12 10-8 14-7z" fill="#020203"/>
<path transform="translate(1156,795)" d="m0 0h19l16 4 16 8 10 8 7 8 8 13 5 13 2 9v19l-4 16-7 14-8 10-9 9-14 8-13 5-12 2h-10l-13-2-15-5-14-9-8-7-10-14-5-11-3-10-1-7v-17l3-14 5-11 6-10 9-10 10-8 14-7z" fill="#020303"/>
<path transform="translate(1380,1510)" d="m0 0h9l12 2 13 5 11 8 8 8 8 13 5 15v20l-4 13-7 13-10 11-14 9-12 4-5 1h-17l-15-4-11-6-10-9-8-10-6-13-3-14v-10l4-17 7-13 10-11 10-7 11-5z" fill="#030303"/>
<path transform="translate(1549,1312)" d="m0 0 5 5 10 8 8 4 11 3h15l10-2 2 9 2 19 1 16v30l-3 27-5 20-6 17-8 17-9 14-10 13-11 12-8 7-16 12-13 8h-2l1-7v-50l-1-10 7-8 11-16 8-16 6-21 2-12 1-18v-12l-2-28-4-31z" fill="#FABC58"/>
<path transform="translate(660,1510)" d="m0 0 13 1 15 5 11 7 8 7 9 14 5 13 1 4v21l-6 17-7 10-8 9-14 9-12 4-5 1h-16l-16-4-13-8-10-9-9-14-4-11-1-5v-21l4-13 7-12 8-9 8-6 12-6 10-3z" fill="#030303"/>
<path transform="translate(677,1902)" d="m0 0 26 2 17 4v3l-8 11-8 16-4 11-3 15v17l4 17 3 6v3l-16 1h-18l-31-1-21-2-20-4-9-4-6-4-6-7-3-8v-12l4-13 5-10 12-14 14-10 17-8 16-5 16-3z" fill="#F4DAC9"/>
<path transform="translate(1368,1902)" d="m0 0 21 1 16 3 13 4 12 5 10 5 13 10 7 7 7 11 5 12 1 4v16l-4 9-8 7-13 5-19 4-20 2-29 1h-21l-16-1 5-14 3-15v-11l-3-17-6-16-7-13-8-11 2-2 16-4z" fill="#F4DACA"/>
<path transform="translate(924,565)" d="m0 0h3l4 14 4 10 7 11 9 10 11 9 16 10 17 7 8 3 1 3v21l-36 12-31 10-12 2-10-1-16-4-12-6-9-8-7-10-5-10-2-9v-17l5-17 5-10 7-9 5-5 11-8 12-5z" fill="#F4DAC9"/>
<path transform="translate(1121,565)" d="m0 0 19 3 14 7 10 8 7 8 8 14 4 14 1 7v9l-2 12-8 16-8 9-13 8-10 4-19 3-20-4-41-14-18-6-1-1v-22l5-3 12-4 19-10 13-10 12-12 7-11 4-8 3-9z" fill="#F4DAC9"/>
<path transform="translate(641,81)" d="m0 0 14 1 16 5 15 8 14 11 5 5v2l-5 2-2 5-2 4v11l3 6 9 10 9 9 11 14 10 16 6 15 1 12-2 9-8 11-11 11-14 11-4-1-7-10-7-11-10-17-10-19-12-27-12-36-5-25-2-15z" fill="#FA7E7D"/>
<path transform="translate(1399,81)" d="m0 0h8v16l-4 27-7 26-8 23-12 27-8 15-6 11-8 14-8 12-6 7-7-4-11-9-12-12-6-10-1-3v-12l5-15 7-13 10-14 9-10 12-12 5-8 1-3v-8l-3-7-5-5-1-2 1-3 11-9 11-8 15-7 11-3z" fill="#FA7E7D"/>
<path transform="translate(1016,197)" d="m0 0h13l9 2 10 5 9 7 7 9 6 13 2 7v19l-4 13-6 11-8 9-11 7-8 3-6 1h-11l-12-3-11-6-10-10-6-10-4-12-1-5v-12l3-14 7-14 11-11 10-6z" fill="#030303"/>
<path transform="translate(1131,139)" d="m0 0h14l12 3 12 7 8 8 7 12 4 12 1 6v9l-4 16-5 10-8 10-11 8-11 4-6 1h-8l-10-2-9-4-9-6-8-9-7-14-2-7-1-14 2-12 4-11 7-10 8-8 10-6z" fill="#030303"/>
<path transform="translate(901,139)" d="m0 0h13l13 3 10 6 8 8 8 13 4 13v20l-4 13-7 11-7 8-10 6-10 4-6 1h-8l-10-2-9-4-9-6-9-10-5-10-4-16v-11l4-16 7-12 10-10 13-7z" fill="#030303"/>
<path transform="translate(1151,287)" d="m0 0h15l16 4 12 6 10 8 8 9 8 15 4 16v9l-4 10-7 6-8 3-10-2-6-4-4-5-2-5-2-12-4-8-7-6-5-2h-13l-8 4-7 8-2 5-2 13-6 9-7 4-9 1-9-3-7-8-2-6v-12l4-16 7-13 9-10 8-7 16-8z" fill="#040404"/>
<path transform="translate(882,287)" d="m0 0h13l16 3 14 7 9 7 9 10 6 11 4 10 2 9v12l-4 8-8 7-6 2-8-1-8-4-5-6-2-7-2-10-4-8-7-6-5-2h-13l-8 4-6 7-3 6-1 11-5 9-5 4-7 3-10-1-8-5-4-5-2-7v-9l3-15 8-16 9-10 8-7 16-8z" fill="#040404"/>
<path transform="translate(1021,700)" d="m0 0 10 1 41 14 23 8 9 2-5 6-14 11-16 9-18 6-15 3h-25l-22-5-16-7-10-6-13-10-6-7 20-6 43-14z" fill="#F4DAC8"/>
<path transform="translate(1524,910)" d="m0 0h14l4 42 5 35v7l-4 2-6 1h-13l-12-4-10-7-7-8-5-10-2-9v-11l3-12 7-11 7-7 12-6z" fill="#4C5155"/>
<path transform="translate(1440,1359)" d="m0 0 3 1 11 29 12 36 7 25 3 11-1 4h-15l-15-5-13-9-8-9-7-14-3-11v-18l4-13 7-12 8-9z" fill="#4C5155"/>
<path transform="translate(605,1360)" d="m0 0 4 2 10 9 6 7 6 13 2 9v16l-3 12-6 12-11 12-10 7-13 5-9 2h-7l-2-1 2-11 5-19 10-32z" fill="#4C5155"/>
<path transform="translate(1161,835)" d="m0 0h11l11 4 10 9 5 10 1 3v11l-3 10-6 8-7 6-9 4h-17l-10-5-7-6-6-12-1-3v-12l4-10 6-8 9-6z" fill="#4C5155"/>
<path transform="translate(877,835)" d="m0 0h9l10 3 9 7 6 9 2 5v17l-6 12-9 8-10 4h-16l-12-6-7-8-4-9-1-4v-10l3-9 6-9 8-6 7-3z" fill="#4C5155"/>
<path transform="translate(1284,1149)" d="m0 0h4v7l-9 41-6 31-5 27h-4l-13-12-6-8-6-13-2-9v-13l3-13 6-12 7-9 8-7 16-8z" fill="#4C5155"/>
<path transform="translate(1748,936)" d="m0 0h7l10 3 12 7 9 8 6 10v7l-8 16-7 9-8 7-8 3h-11l-9-4-7-6-4-8-2-7 1-8 5-12 10-18z" fill="#4C5155"/>
<path transform="translate(760,1149)" d="m0 0 12 3 12 6 9 7 7 8 7 14 3 13v11l-4 16-7 12-9 10-8 7-2-2-4-19-3-17-7-36-6-26z" fill="#4C5155"/>
<path transform="translate(1576,1152)" d="m0 0 2 4 3 19 10 53v5l-2 1-14 2-12 6-10 9-6 8-5 12h-1l-5-30-5-28 10-6 9-7 9-9 8-12 6-15 2-11z" fill="#F9BC58"/>
<path transform="translate(999,561)" d="m0 0h47l18 2 12 2 1 3-5 8-8 8-14 9-16 6-3 1h-14l-16-5-12-7-9-7-8-9-1-6 6-2z" fill="#4C5155"/>
<path transform="translate(1498,1031)" d="m0 0 17 4 6 1h22l11-3 2 6 4 20 9 49 1 8-3-4-7-11-8-9-13-9-13-6-20-5-2-6-5-29z" fill="#F9BC58"/>
<path transform="translate(1657,698)" d="m0 0 21 3 19 5 20 8 17 9 3 3-2 5-4 5-11 8-10 4-4 1h-13l-13-4-10-7-7-8-6-13-1-5v-13z" fill="#4C5155"/>
<path transform="translate(1613,700)" d="m0 0 2 1 3 21 3 12 8 16 1 4-9 3-15 6-13 9h-2v-8l-4-18-8-16-7-10v-3l24-11z" fill="#F9BC58"/>
<path transform="translate(1546,836)" d="m0 0h2l-2 10-5 22-3 2h-11l-15 2-17 6-12 6 1-13 5-30 1-4 17 4h22l13-3z" fill="#F9BC58"/>
<path transform="translate(1325,859)" d="m0 0 5 5 5 12 3 14 1 8v20l-2 6h-11l-9-4-8-7-5-7-3-9v-11l4-10 7-9 9-6z" fill="#4C5155"/>
<path transform="translate(720,860)" d="m0 0 5 1 11 7 6 8 4 10v10l-4 11-6 8-10 7-6 2h-10l-1-7v-21l4-20 6-15z" fill="#4C5155"/>
<path transform="translate(1769,752)" d="m0 0 5 5 13 17 3 7-8 3-12 6-10 8-7 8-5 9-2 2-7-13-10-13-5-6 13-5 15-10 9-8z" fill="#F9BC58"/>
<path transform="translate(1539,745)" d="m0 0 4 2 7 12 1 3v14l-4 10-8 9-14 7h-13l-8-3 4-10 8-14 12-17 9-11z" fill="#4C5155"/>
<path transform="translate(1303,497)" d="m0 0 3 1-16 16-11 9-33 33h-2l-2 4-3 1-4-25-2-7 14-9 22-12 16-6z" fill="#F4D9C6"/>
<path transform="translate(741,497)" d="m0 0 7 1 20 6 18 8 17 9 12 8-4 18-2 13h-3l-4-4v-2l-4-2-27-27-8-7-11-10-8-7z" fill="#F4D9C4"/>
<path transform="translate(1180,1327)" d="m0 0h11l8 4 6 8 1 3v10l-4 8-6 5-7 3h-9l-8-4-6-8-1-3v-11l4-8 6-5z" fill="#4C5155"/>
<path transform="translate(1260,1007)" d="m0 0h11l8 4 6 8 1 3v10l-4 8-6 5-7 3h-8l-10-5-6-9v-13l6-9 6-4z" fill="#4C5155"/>
<path transform="translate(1380,1551)" d="m0 0h11l8 4 6 8 1 3v10l-4 8-8 6-5 2h-8l-10-5-4-5-2-5v-12l6-9 6-4z" fill="#4C5155"/>
<path transform="translate(776,1007)" d="m0 0h11l8 4 5 6 2 5v11l-6 9-8 5-3 1h-8l-8-4-6-7-2-4v-11l6-10 6-4z" fill="#4C5155"/>
<path transform="translate(656,1551)" d="m0 0h11l8 4 5 6 2 5v10l-4 8-8 6-5 2h-8l-8-4-6-7-2-4v-11l3-6 4-5z" fill="#4C5155"/>
<path transform="translate(856,1327)" d="m0 0h11l8 4 6 8 1 3v10l-4 8-7 6-6 2h-8l-8-4-6-7-2-4v-11l6-10 6-4z" fill="#4C5155"/>
<path transform="translate(1220,1607)" d="m0 0h11l6 3 3 3 1 4v19l-3 7-6 4-3 1h-8l-8-4-6-7-2-4v-11l4-8 6-5z" fill="#4C5155"/>
<path transform="translate(816,1607)" d="m0 0h11l8 4 6 8 1 2v11l-4 8-6 5-7 3h-8l-6-3-3-3-1-3v-23l2-5z" fill="#4C5155"/>
<path transform="translate(1245,1449)" d="m0 0h2l-1 19-2 43-3 1-9-6-6-8-4-9v-14l3-9 8-10z" fill="#4C5155"/>
<path transform="translate(1804,819)" d="m0 0 3 2 4 14 3 18v6l-6 3h-11l-8-4-6-8-1-3v-11l4-8 8-6z" fill="#4C5155"/>
<path transform="translate(801,1450)" d="m0 0 7 2 10 8 5 8 2 8v11l-4 11-9 10-5 4-3-1-2-39z" fill="#4C5155"/>
<path transform="translate(1514,1115)" d="m0 0 5 2 8 6 7 11 1 4v13l-4 10-5 8h-2l-5-22-5-29z" fill="#4C5155"/>
<path transform="translate(971,82)" d="m0 0h3l-3 10-6 8-6 3h-8l-8-6-4-7v-2l15-4z" fill="#4C5155"/>
<path transform="translate(1074,82)" d="m0 0 19 2 15 4 1 2-4 6-7 6-2 1h-7l-6-3-5-5-4-9z" fill="#4C5155"/>
<path transform="translate(1759,885)" d="m0 0 5 3 5 4 14 7 13 3h18l-2 9-1 9-5-2-11-8-14-7-15-5-8-2z" fill="#F9BC58"/>
<path transform="translate(1022,237)" d="m0 0 5 1 4 5 1 3v7l-3 7-5 3-5-2-4-5v-11l4-6z" fill="#4C5155"/>
<path transform="translate(1136,180)" d="m0 0h6l5 4 1 3v9l-3 6-2 2h-6l-6-7v-10l4-6z" fill="#4C5155"/>
<path transform="translate(905,180)" d="m0 0h6l5 5 1 3v9l-6 7-7-1-4-6v-10l4-6z" fill="#4C5155"/>
<path transform="translate(1587,1274)" d="m0 0h6l6 5v8l-5 5h-8l-5-6v-6l4-5z" fill="#4C5155"/>
<path transform="translate(1185,522)" d="m0 0 2 1 8 24 1 7-4-2-5-5v-13z" fill="#4C5155"/>
<path transform="translate(861,523)" d="m0 0h1l-1 10-1 12 2 1-3 1-2 4-3 3h-2l1-7 5-17z" fill="#4C5155"/>
<path transform="translate(1570,1113)" d="m0 0h1l6 36-1 4h-1l-4-28-2-9z" fill="#515455"/>
<path transform="translate(740,194)" d="m0 0 3 4 4 12v9l-4 9-1-2 2-9-1-12-3-8z" fill="#4C5155"/>
</svg>
