<?xml version="1.0" encoding="UTF-8"?>
<svg version="1.1" viewBox="0 0 2048 2048" width="1280" height="1280" xmlns="http://www.w3.org/2000/svg">
<path transform="translate(636)" d="m0 0h32l17 5 11 6 10 9 7 10 7 19 5 12 8 13 9 12 9 10 1 3h2l6 7 8 7 13 11 13 9 6-2 27-14 28-12 19-7 30-9 34-8 23-4 43-4h39l43 4 29 5 36 9 36 12 20 8 28 13 17 9 4-1 14-11 14-12 17-17 13-17 8-13 8-19 5-13 5-8 6-7 10-7 15-6 7-2h32l26 6 15 5 18 8 18 10 14 10 14 12 14 14 11 15 8 14 6 15 4 15 1 7v24l-4 20-5 15-8 16-9 14-9 11-9 10-8 7-13 10-18 11-16 8-23 10-19 6v2l12 21 12 24 12 29 12 36 6 19 10 13 11 12 11 11 14 11 15 10 14 7 26 8 7 8 1 3v11l-4 8-13 16-9 12-8 10h-2l5 5 14 9 16 8 16 6 17 4 6 4 4 5 2 5v9l-8 16-10 15-9 11-9 10-10 10-11 9-18 13-4 3 30 10 8 5 4 5 2 5v9l-7 16-15 29-10 17-14 22-12 17-12 16-12 14-15 16-10 10-8 7-17 14 3 10 13 38 13 43 17 63 9 42 7 41 7 49 2 17v10l32 3 30 5 25 7 20 8 21 11 17 12 13 12 11 11 11 15 9 15 8 17h1l5-27v-31l-3-15-4-12-8-16-10-14-9-11-14-14v-2l-4-2-18-18-8-7-15-14-17-17-9-11-10-12-13-18-11-18-15-29-9-23-6-19-5-22-2-13-1-12v-30l3-24 6-28 8-22 12-25 12-20 12-16 12-14 9-10 17-17 8-7 16-13 18-13 17-11 15-9 32-17 17-8 27-11 36-12 14-4 11-2h16l18 4 11 5 11 7 10 9 9 11 9 17 5 17 2 12v16l-3 16-5 13-6 11-8 10-7 7-14 9-14 6-32 11-28 11-25 12-20 12-17 12-12 11-4 4h-2l-2 4-11 15-8 16-4 15v15l4 16 5 12 8 13 11 13 9 10 7 8 8 7 14 14 2 1v2l4 2 32 32 7 8 12 13 11 14 13 18 9 15 12 23 8 18 9 27 6 24 4 32v29l-5 40-6 27-8 26-10 26-12 26-9 17-12 19-12 17-11 14-13 15-8 9-8 7-6 6h-2v2l-8 7-15 13-17 13-18 13-12 8-4 9-10 29-11 28-17 41-15 37-15 35-13 29-15 36-7 16 13 1 24 4 21 6 15 6 15 8 12 9 9 8 10 13 8 15 5 15 3 16v25l-4 24-5 10-8 7h-548l-20-10-10-8-8-9-4-7-36 8-32 5-23 2h-44l-38-4-31-6-20-5-6 9-8 9-14 9-16 7h-547l-1-3-4-2-4-5-4-10-3-18-1-21 3-19 3-11 6-15 10-15 9-10 8-7 14-9 16-8 21-7 19-4 26-4-18-43-11-25-7-16-14-33-18-44-15-36-14-37-13-42-6-24-9-43-5-30-5-47v-33l2-19 4-25 7-25 9-20 10-19 10-14 8-10h2l2-4 7-7 14-11 15-10 17-9 20-8 21-6 21-4 22-3 22-2 4-30 7-49 6-35 9-42 12-46 14-48 13-40 8-21-2-4-10-8-10-9-12-11-9-9-7-8-8-9-11-14-13-18-10-15-12-20-13-23-14-28-2-7 1-7 4-7 6-5 12-5 18-6h4l-4-4-14-10-11-9-13-12-7-7-9-11-10-14-9-16-2-5v-9l4-8 7-6 24-6 16-7 15-8 12-8h2l-10-13-8-10-14-18-4-7-1-9 4-9 5-5 7-3 16-4 17-8 12-8 14-11 13-12 13-14 8-11 4-10 7-24 10-28 13-30 13-25 8-13v-2l-27-9-26-12-14-8-13-9-11-9-19-19-10-14-9-16-6-15-5-19-2-21 2-17 4-16 7-17 9-15 11-14 3-4h2l2-4 12-11 18-13 15-9 21-10 21-7z" fill="#030203"/>
<path transform="translate(816,167)" d="m0 0v3l-7 6-17 17-4 8v10l4 8 7 5 3 1h10l36-13 34-10 37-8 42-6 42-3h36l31 2 36 4 24 4 24 5 31 8 51 17h9l7-3 6-7 2-5v-9l-6-10-16-16-5-4 1-2 5 3 3 3 11 7 18 13 11 8 11 9 10 9 12 11 22 22 9 11 13 16 8 11 9 12 10 16 12 22 12 25 11 29 9 29 5 17 8 11 11 13 7 8 17 17 11 9 15 11 18 10 4 3-2 4-14 17-10 14-3 6v9l4 8 10 9 17 12 20 12 16 8 8 3-1 5-12 13h-2l-1 3-8 7-13 10-21 13-19 9-14 6-5 4-4 9v8l4 8 8 6 44 15 12 4 1 4-8 14-6 11-9 15-16 24-9 12-13 16-16 17-12 12-11 9-14 10-22 13-15 8-27 11-24 7-33 7-2-1 1-5 2-6 1-14 4-4 11-7 14-10 16-13 12-11 13-13 11-14 9-12 12-20 13-27 7-19 6-22 4-21 3-25v-47l-4-30-4-17-6-8-10-4-8 1-6 3-5 5-2 5v11l5 31 1 18v24l-2 22-5 25-7 24-9 21-10 18-10 15-8 10-12 14-10 10-11 9-13 11h-2l-10-25-10-18-11-14-2-4h-2l-6-7-11-9-10-7-14-8-20-8-25-6-11-1h-15l-18 2-14 3-5-1-9-19-7-20-6-25-2-12-1-15v-25l2-21 5-25 6-21 9-24 4-11-1-9-5-8-10-5h-8l-8 4-6 8-10 24-6 18-6 24-4 24-2 18v35l4 30 6 25 6 17v3h-72l-24 1 1-7 6-18 5-22 3-21 1-12v-27l-2-22-5-28-6-24-10-27-7-14-5-5-4-3-3-1h-9l-8 4-5 6-2 5v8l11 28 6 19 4 16 4 26 1 15v24l-2 20-5 23-8 24-7 15-4 8-10-1-15-3-11-1h-15l-17 2-20 5-16 6-15 8-14 10-13 12-7 7-11 15-12 23-7 19h-2v-2l-4-2-13-10-10-9-18-18-12-16-12-19-8-16-6-14-6-20-5-22-3-24v-44l2-17 4-18v-11l-4-8-5-4-9-3-10 2-5 3-5 9-4 20-3 26-1 15v17l2 23 3 23 6 27 8 24 9 20 9 17 7 11 10 14 8 10 11 12 5 5v2l4 2 8 8 11 9 16 12 16 10 2 1 1 6 2 13 1 8h-7l-24-5-25-7-25-10-16-8-18-10-15-10-10-8-13-12-2-1v-2l-4-2-4-4v-2h-2l-7-8-9-10-9-12-13-18-14-22-12-21-7-13v-3l28-10 29-10 7-5 5-10-1-10-4-6-5-4-27-12-16-9-16-11-14-12-13-13-5-6v-2l25-12 18-11 14-10 13-10 5-8 1-3v-7l-4-8-12-16-14-17 3-3 11-6 16-10 11-9 10-9 8-7 14-15 9-11 9-12 4-11 10-34 11-29 11-24 13-24 12-19 14-18 12-16 11-12 7-8 12-13 8-7 7-7 11-9 16-13 17-12 25-17z" fill="#F59126"/>
<path transform="translate(1153,1098)" d="m0 0 3 3 13 27 11 29 9 30 7 28 7 36 5 39 3 40v61l-3 39-4 32-7 38-9 36-8 25-9 25-8 18-9 19-12 21-8 12-12 16-9 10-7 8-12 11-17 12-19 9-18 5-8 1h-16l-17-3-16-6-15-8-16-12-16-15-9-10-11-15-10-15-12-21-13-27-13-34-10-33-7-29-7-38-4-32-3-36v-72l4-45 6-39 7-33 8-30 9-27 11-27 11-22 5 2 15 10 18 10 13 6 10 4 10 3 15 4 26 4 12 1h13l14-1 24-4 19-5 19-7 23-11 14-9 9-7z" fill="#F4DACB"/>
<path transform="translate(625,942)" d="m0 0 5 1 25 12 36 12 22 5 15 3 31 4 7 2 14 15 10 9 14 10 16 8 15 6 6 8 7 11 14 19 1 4-10 19-8 17-13 33-9 28-9 35-7 35-5 35-3 29-2 36v32l1 32 3 38 6 44 9 43 8 29 12 36 11 27 2 12 1 253-2 2-28 7-23 6h-16l-14-5-14-9-15-10-18-8-18-5-11-3-3-7-5-13-14-27-7-12-11-23-15-32-4-9 1-1 29-3 22-4 23-6 20-7 28-11 13-7 6-9 3-10-2-11-6-9-5-4-9-3-58-6-35-5-36-7-30-7-4-3-8-29-9-38v-3l26 2h45l31-4 22-5 36-10 10-5 5-5 5-10v-13l-5-10-7-6-13-4-45-9-36-9-30-9-41-14-20-8-2-5-2-47v-29l25 4 20 2h47l31-4 26-6 29-9 19-7 6-4 6-7 3-10-1-10-5-10-7-6-16-4-44-7-43-9-30-8-39-12-22-8-1-1 1-14 6-45 4-21 17 2 28 2h18l30-2 28-5 34-9 18-6 8-6 4-7 2-5v-12l-5-10-1-3h-2v-2l-5-2-9-3-41-8-37-9-41-12-23-8 1-8 14-49 13-40z" fill="#F69226"/>
<path transform="translate(1421,941)" d="m0 0h2l12 36 15 49 6 22-1 4-36 12-35 10-39 9-31 6-11 4-6 5-5 10v14l5 10 7 6 19 7 38 10 25 4 25 2h24l27-2 17-2 3 15 8 62-2 4-37 13-31 9-40 10-43 8-34 5-10 4-5 4-5 10-1 3v10l3 8 7 8 12 6 33 11 19 5 21 4 24 3h49l32-4 12-2 1 2-3 67-1 10-5 3-20 8-34 12-30 9-44 11-46 9-9 4-5 4-5 10-1 11 4 11 5 6 9 5 30 9 20 5 22 4 21 2h44l20-2h6l-5 25-9 34-4 12-8 3-40 9-35 6-40 5-40 4-8 3-8 7-4 8v15l5 10 8 6 18 8 23 9 24 8 28 6 22 3 13 1 2 1-1 4-15 33-19 38-10 17-9 19-4 13-9 3-16 5-16 8-11 7-15 10-12 5-4 1h-16l-27-7-33-8 1-27 1-235 15-39 11-34 9-36 7-37 5-38 3-34 1-25v-45l-4-52-5-37-7-38-8-32-9-28-7-20-10-24-10-21-6-11 1-4 10-13 15-23 4-3 13-5 17-9 14-10 12-11 8-9 5-5 19-2 22-3 27-6 24-7 25-10 17-8z" fill="#F69226"/>
<path transform="translate(1158,1691)" d="m0 0h1v179l-2 17-6 21-10 26-7 21-3 15-2 3-21 6-29 6-25 3-12 1h-38l-36-4-26-5-21-6-4-3-6-25-10-28-5-13-5-18-2-17v-178l6 5 9 11 2 4 4 2v2l4 2v2l4 2 11 10 11 8 13 8 16 8 19 7 15 3 8 1h26l22-4 12-4 16-7 15-8 11-8 9-7 11-10 13-13 9-11z" fill="#F69226"/>
<path transform="translate(348,1491)" d="m0 0 7 1 27 7 27 5 25 3 15 1h37l26-2 11-1 4 19 4 23 8 37 9 36 13 44 13 38 11 28 12 28 11 24 12 25 10 20 13 23 5 11-24 4-12 4-15 8-16 12-10 7-14 7-12 3-10-1-15-5-34-16-4-4-9-24-9-21-7-17 1-1 18-3 27-7 28-10 29-12 9-6 6-8 2-7v-9l-5-12-8-7-10-3-52-5-37-5-40-7-11-3-5-8-6-15-5-11-6-14v-4l28-5 20-5 35-11 14-7 6-7 3-9v-9l-4-10-6-7-10-4-43-7-35-7-32-8-7-3-4-15-7-36z" fill="#F69226"/>
<path transform="translate(1697,1490)" d="m0 0h2l-1 10-4 27-5 24-2 10-5 3-26 7-38 8-49 8-9 4-8 9-2 7v12l4 9 9 8 13 5 38 12 28 6 14 2-1 5-10 24-9 21-2 2-23 5-35 6-39 5-44 4-11 4-5 4-5 9-1 5v10l4 10 7 7 15 7 33 13 21 7 25 6 14 3-1 5-17 40-5 13-3 6-15 8-24 11-12 4-9 1-11-2-12-5-12-8-19-14-17-9-19-5-13-1v-4l17-32 11-21 11-23 14-31 14-34 9-24 12-36 12-42 10-41 8-38 3-17 3-14 36 3h36l26-2 27-4 27-6 18-5z" fill="#F69226"/>
<path transform="translate(1006,203)" d="m0 0h38l30 4 25 6 23 8 23 11 18 11 11 8 14 11 10 9 11 9 13 12 5 8 1 9-3 8-5 5-5 3-2 1h-12l-39-11-38-8-35-5-39-3h-55l-39 3-35 5-28 6-23 6-23 7-9 1-9-4-5-5-4-8v-7l3-8 5-5 11-10 14-11 10-9 20-15 21-13 21-10 22-8 28-7 20-3z" fill="#030203"/>
<path transform="translate(646,40)" d="m0 0h15l9 3 5 3 5 11 6 15 10 19 12 17 12 14 23 23 10 8 4 3-2 4-13 9-13 11-11 9-3 3h-2v2l-8 7-20 20-2 3h-2l-2 4-12 14-10 13-4 3-26-8-20-8-17-8-15-10-11-9-12-12-10-14-8-17-4-15-1-7v-15l4-15 8-17 10-13 14-14 13-10 17-10 18-8 16-5z" fill="#F69226"/>
<path transform="translate(1388,40)" d="m0 0h15l20 4 19 7 16 8 11 7 12 9 13 12 7 8 9 14 6 14 3 14v16l-4 15-7 16-8 13-11 13-11 10-18 12-16 8-21 9-26 8-6-1-10-13-9-11-12-13v-2h-2l-7-8-8-8-8-7-11-10-11-9-19-14-4-4 13-11 12-11 15-15 11-14 10-14 12-23 8-20 5-5 6-3z" fill="#F69226"/>
<path transform="translate(1008,325)" d="m0 0h32l26 4 21 6 19 8 15 8 15 10 11 9 10 9 29 29 4 8v9l-4 8-7 6-6 2-10-1-36-11-27-6-24-4-16-2-16-1h-43l-24 2-32 5-25 6-20 6-19 6h-7l-7-3-5-4-4-8v-10l3-7 9-10 8-7 8-8 8-7 12-11 18-13 20-11 20-8 23-6z" fill="#030203"/>
<path transform="translate(1158,797)" d="m0 0h12l20 3 18 6 14 8 9 7v2l-11 3-41 14-7 5-4 8v8l5 10 6 4 4 1h9l35-11 27-9 5 1 5 15 4 21v14l-2 7h-9l-56-6h-10l-8 4-5 7-1 3v9l5 10 7 4 19 3 43 5-6 8-12 12-14 9-13 6-14 4-10 1h-22l-14-3-43-14-36-12-20-7-3-2v-47l5-3 13-3 15-6 16-8 11-7 12-9 10-9 7-7 10-14 8-16 4-18v-10z" fill="#F4DACA"/>
<path transform="translate(877,797)" d="m0 0h14l1 1 2 18 5 15 7 13 10 13 14 14 18 13 16 9 16 7 9 3 13 3 2 3v46l-4 3-90 30-15 4-6 1h-26l-12-2-12-4-16-8-10-8-6-5-7-8-3-5 48-5 16-2 9-4 4-5 3-9-2-10-6-7-6-3h-12l-62 7h-7l-2-4v-22l5-22 5-11 1-2 12 3 54 18 4 1h11l7-4 4-5 2-5v-10l-3-6-6-5-15-6-42-14 2-4 15-9 14-6 12-3z" fill="#F4DACA"/>
<path transform="translate(688,1900)" d="m0 0 12 2 14 5 12 7 16 11 16 8 13 4 6 1h25l22-5 31-8 5 1 10 27 6 21 1 7v8l-3 8-8 7-7 3-11 1h-207l-9-3-6-4-6-6-2-6v-8l5-10 9-9 7-8 15-14 9-7 9-8 10-15 4-8z" fill="#F4DACB"/>
<path transform="translate(1358,1901)" d="m0 0 4 1 8 15 9 11 10 9 9 7 8 8 8 7 10 11 5 9 1 3v7l-4 8-8 7-7 3-7 1h-209l-9-2-8-4-6-8-1-4v-12l5-21 9-24 4-9 10 1 25 6 24 6 6 1h25l16-4 19-9 22-15 10-5z" fill="#F4DACA"/>
<path transform="translate(1022,993)" d="m0 0 7 1 36 12 43 14 30 10 16 3h5l-2 4-9 11-15 14-13 10-21 12-19 8-13 4-20 4-15 1h-14l-18-1-23-5-12-4-10-4-19-10-16-11-10-9-14-13-7-9v-1l21-4 19-6 72-24z" fill="#F4DACB"/>
<path transform="translate(630,1904)" d="m0 0v3l-9 6-25 25-11 15-5 10-3 7v30l3 5v2l-8 1h-217l-8-1v-25l3-12 6-12 9-10 10-8 17-8 17-5 15-3 26-2 11-3h7l36 17 21 7 14 2 17-1 17-5 16-8 19-12 13-10z" fill="#F4DAC9"/>
<path transform="translate(1417,1905)" d="m0 0 5 1 10 6 12 10 18 11 12 6 13 4 15 2h9l15-3 15-5 28-13 11-5 10 1 9 2 24 2 24 5 16 6 15 9 11 10 8 14 3 9 1 6v22l-1 2-45 1h-186v-4l2-6v-26l-5-13-8-13-12-14-18-18-8-6z" fill="#F4DAC9"/>
<path transform="translate(501,1273)" d="m0 0h13l-1 12-1 57 1 50 2 30v10l-10-3-28-12-30-14-32-16-22-12-25-14-6-4 2-6 9-15 7-9 9-10 13-11 18-11 13-6 19-7 20-5z" fill="#F69226"/>
<path transform="translate(1535,1273)" d="m0 0h10l24 3 23 5 21 7 17 8 18 12 14 12 9 11 7 10 7 12-1 4-10 7-22 12-18 10-36 18-23 11-28 12-12 5h-3l3-38z" fill="#F69226"/>
<path transform="translate(1769,1109)" d="m0 0 5 1 11 11 7 8 13 14 10 13 12 17 9 15 13 27 5 13v4l-9 2-44 5-34 3h-6l-6-9-11-18-11-14-9-10-7-8-19-19-8-7-2-3 16-8 27-14 24-14z" fill="#F69226"/>
<path transform="translate(1009,789)" d="m0 0h29l36 2 20 3 13 5 5 4v9l-6 11-12 13-10 9-13 8-17 8-9 3-15 3h-12l-19-4-13-5-15-8-11-8-12-11-8-10-4-8-1-8 5-6 12-5 21-3 11-1z" fill="#494D53"/>
<path transform="translate(1735,741)" d="m0 0 4 1 8 16 14 24 13 24 7 12-2 4-23 13-22 15-13 11-8 7-6-1-17-10-24-15-10-7-15-10-5-4 1-4 27-27 11-9 13-10 13-9 19-12z" fill="#F69226"/>
<path transform="translate(1583,927)" d="m0 0 10 3 17 7 30 10 29 7 2 2 2 20 4 15 6 16 5 9-2 4-54 27-21 10-4-1-9-19-8-22-6-25-3-22v-24z" fill="#F69226"/>
<path transform="translate(1843,699)" d="m0 0h16l10 4 8 6 7 8 7 15 1 4v20l-4 12-7 9-7 6-14 6-32 11-7 3h-4l-11-21-14-24-16-29-2-5 15-7 27-10 22-7z" fill="#494D53"/>
<path transform="translate(814,496)" d="m0 0h12l15 3 16 8 11 8 8 10 8 15 4 16v8l-3 10-8 7-5 2h-10l-8-4-6-8-3-16-6-10-9-6-10-2-9 2-9 6-6 9-3 16-4 7-5 4-8 3-9-1-9-6-4-7-1-4v-8l3-15 5-12 7-10 6-7 12-9 13-6z" fill="#040304"/>
<path transform="translate(1222,496)" d="m0 0h11l15 3 16 8 8 6 5 5 7 9 8 16 2 7 1 14-4 11-7 6-5 2h-11l-9-6-4-6-3-15-5-10-8-6-5-2h-14l-10 6-6 8-2 5-2 13-6 9-7 4-10 1-10-5-6-9-1-4v-10l4-16 8-16 10-11 13-9 11-5z" fill="#040305"/>
<path transform="translate(1e3 115)" d="m0 0h34l31 2 23 3 15 4 12 5 19 10 18 12 12 10-4 1-30-6-16-3-28-4-34-3h-70l-40 4-45 7-16 3-3-1 11-9 18-12 21-11 18-6 24-4 9-1z" fill="#494D53"/>
<path transform="translate(349,1397)" d="m0 0 5 1 25 14 26 14 30 15 33 15 21 9 3 1v2h-49l-28-3-30-6-25-7-13-4-2-2 1-19 2-24z" fill="#494D53"/>
<path transform="translate(1860,1351)" d="m0 0 1 3-7 28-7 21-8 21-5 1-45-14-35-12-3-2 1-5 6-12 36-8 26-7 27-9z" fill="#F69226"/>
<path transform="translate(1696,1397)" d="m0 0h3l1 5 1 25v20l-10 4-24 7-28 6-32 4h-45l-6-1 4-3 26-11 28-13 25-12 19-10 22-12z" fill="#494D53"/>
<path transform="translate(1859,1272)" d="m0 0h5l1 32-8 5-21 9-36 12-23 6h-5l2-16 1-17-1-22 61-6z" fill="#494D53"/>
<path transform="translate(1711,1052)" d="m0 0 4 1 9 9 7 8 9 9v2l-26 15-26 14-28 14-4-1-7-8-14-17-3-4v-3l76-38z" fill="#494D53"/>
<path transform="translate(1745,1438)" d="m0 0 10 3 35 12 22 7 5 1-1 4-9 14-12 16-11 14-5 6-10-3-29-11 1-14 2-18 1-27z" fill="#494D53"/>
<path transform="translate(1611,854)" d="m0 0 4 1 17 11 24 16 13 8 16 10-1 6-5 9-12-2-25-7-26-9-18-8-3-2 3-9 8-16z" fill="#494D53"/>
<path transform="translate(1489,1280)" d="m0 0h3l1 14v18l-13 3-21 3-23 2h-18l-27-2-20-3-2-2 54-13 35-10z" fill="#494D53"/>
<path transform="translate(556,1280)" d="m0 0 12 3 30 10 33 9 42 10 6 2v1l-20 3-11 1h-49l-26-3-17-3-1-1v-20z" fill="#494D53"/>
<path transform="translate(563,1480)" d="m0 0 7 1 22 8 32 10 43 12-2 2-14 2-19 1h-15l-30-2-19-3-4-15z" fill="#494D53"/>
<path transform="translate(1481,1480)" d="m0 0h3v15l-4 15-5 2-25 3-16 1h-16l-17-1-12-2-3-3 3-2 23-6 34-10z" fill="#494D53"/>
<path transform="translate(1007,244)" d="m0 0h34l26 3 20 5 25 9 4 3-11-1-43-4-18-1h-45l-34 2-30 3 1-2 33-11 18-4z" fill="#494D53"/>
<path transform="translate(1462,1092)" d="m0 0h4l5 22v3l-2 1-16 2-15 1h-26l-16-1-14-2 3-3 44-13z" fill="#494D53"/>
<path transform="translate(582,1092)" d="m0 0 7 1 31 10 38 11 7 3v2l-30 2h-26l-22-2-9-1-1-4z" fill="#494D53"/>
<path transform="translate(608,1670)" d="m0 0 60 11 17 3 3 1v2l-25 5-25 3-21 1-5-11-4-11z" fill="#494D53"/>
<path transform="translate(1433,1671)" d="m0 0h6l-1 7-5 13-2 4h-19l-26-3-23-5-1-2 13-3 27-5z" fill="#494D53"/>
<path transform="translate(433,1758)" d="m0 0 14 2 46 7-2 2-16 5-31 6-4-2-7-18z" fill="#494D53"/>
<path transform="translate(1017,366)" d="m0 0h17l21 3 24 7 2 2-15-1-8-1-21-1h-31l-20 1-7 1h-9l2-2 13-4 14-3z" fill="#494D53"/>
<path transform="translate(1609,1759)" d="m0 0h5l-3 10-5 10-9-1-18-3-17-5-2-2 16-4z" fill="#494D53"/>
<path transform="translate(375,1608)" d="m0 0 30 7 2 3-2 1-24 3-3-1-3-9z" fill="#494D53"/>
<path transform="translate(1668,1609)" d="m0 0h4l-1 9-2 3-21-2-6-2 1-2z" fill="#494D53"/>
<path transform="translate(1417,1905)" d="m0 0 5 1 10 6 9 8 3 6 5 3 4 6v2l-4-2-21-21-8-6z" fill="#FAF2ED"/>
<path transform="translate(1733,1542)" d="m0 0 11 2 2 1-2 4-8 7-5 4h-2z" fill="#F69226"/>
<path transform="translate(630,1904)" d="m0 0v3l-9 6-25 25-2 3-2-1 9-10 5-7 3-5 12-9z" fill="#F9E8DC"/>
<path transform="translate(1417,1905)" d="m0 0 5 1 10 6 5 4-1 2-3 1-11-10-5-3z" fill="#F5CFAF"/>
<path transform="translate(348 2e3)" d="m0 0 5 5v2h23v1h-28z" fill="#FEFEFE"/>
<path transform="translate(1671,1941)" d="m0 0 5 2 9 7 5 6-1 2-3-3v-2h-2v-2l-4-2-9-7z" fill="#FAEADB"/>
<path transform="translate(1697 2e3)" d="m0 0 3 1v8l-4-2-1-5z" fill="#FDFBFB"/>
</svg>
