<?xml version="1.0" encoding="UTF-8"?>
<svg version="1.1" viewBox="0 0 2048 2048" width="1280" height="1280" xmlns="http://www.w3.org/2000/svg">
<path transform="translate(889)" d="m0 0h84l25 1h50l28-1h74l35 6 25 6 19 6 21 8 23 11 4 1 8-7 12-6 10-3 8-1h41l24 3 19 4 26 8 21 8 24 11 25 13 25 15 19 13 15 11 9 7 16 13 11 10 8 7 22 22 7 8 11 13 13 18 10 15 10 18 9 20 7 21 5 25 1 10v22l-3 21-6 21-9 20-9 15-8 11-9 11-15 16-9 9-9 11-10 12-14 21-10 18-7 16-6 18-5 23-2 24 1 24 4 31 5 33 1 11v11l-2 14-5 12-7 9-11 8-15 6-12 2-5 12-8 17-11 17-10 13-12 13-9 9-11 9-13 10-6 4 1 6 13 34 13 36 14 43 15 53 10 41 9 44 8 46 1 7 5-3 28-28 7-8 13-14 1-2h2l2-4 9-11 13-16 10-14 12-17 14-22 14-25 13-26 12-29 10-31 7-28 5-28 3-27 1-32-1-24-3-28-5-28-8-32-5-19v-7l4-10 5-5 7-5 3-1h11l17 5 23 10 19 10 16 11 14 11 13 12 10 10 9 11 13 18 10 18 10 21 7 20 4 13 9-2h12l10 5 6 8 6 15 7 25 7 36 3 27 1 16v28l-2 26-4 27-6 27-6 20-8 21-11 24-11 20-12 19-10 14v2l10 6 5 4 5 8 2 6-1 10-4 8-13 15-10 10-8 7-11 9-20 15-25 16-27 15-27 13-16 7-8 3 10 25 6 22 4 24 2 19v44l-2 24-4 29-4 23-7 31-9 34-11 36-10 29-13 31-38 90-14 33-18 43-4 10 33 5 20 5 16 6 19 10 13 10 10 10 9 13 7 14 5 17 2 15v17l-3 22-4 13-5 6-7 4h-540l-19-7-11-7-12-12-5-8-36 8-32 5-21 2h-49l-36-4-31-6-18-5h-2l-7 10-5 5-8 7-15 8-13 4h-540l-10-8-4-10-3-15-1-9v-23l3-17 5-15 9-16 12-15 14-11 13-8 16-7 19-6 21-4 17-2h5l-6-16-15-35-18-43-12-28-19-45-18-43-12-36-10-33-11-44-7-36-4-29-2-21-1-33 2-30 4-25 6-23 7-19 12-23 12-17 11-12 11-11 15-11 15-9 16-8 19-7 22-6 30-5 31-3 2-14 6-46 8-47 10-48 12-48 12-41 13-41 14-39 13-33 1-5-13-10-11-9-10-9-17-17-10-13-11-17-9-19-4-10-1-1-12-2-12-5-11-7-8-9-6-13-2-11v-20l8-54 2-19v-33l-3-22-5-19-7-19-8-16-9-16-12-17-9-11-12-14-10-10-7-8-12-13-12-17-8-14-8-19-6-23-2-13v-30l4-24 6-20 8-20 12-23 12-18 8-11 7-9 12-14 7-8 24-24h2v-2l8-7 13-11 13-10 19-14 26-17 28-16 24-12 24-10 20-7 21-6 20-4 18-2h39l15 2 13 5 10 7 3 3 5-2 24-11 24-9 28-8 31-6z" fill="#020201"/>
<path transform="translate(1410,921)" d="m0 0h2l13 36 14 43 12 42 12 49 12 60 7 46 5 46 3 55 1 20v57l-3 56-6 53-6 38-7 36-7 30-10 38-15 47-14 38-13 31-7 16-7 15-8 16-13 25-10 18-5 10-5 16-1 5v18l4 18 8 16 8 10 10 10 11 9 16 15 11 12 6 11-1 8-5 8-7 6-6 3-7 1h-213l-8-2-6-4-5-5-3-7 1-14 6-22 13-35 5-21 3-19 1-208v-228l-1-53-3-18-5-18-9-21-8-14-10-14-13-15-11-10-15-11-17-10-24-10-21-6-25-4h-29l-24 4-24 7-23 10-16 10-14 11-11 10-7 8-12 15-10 17-8 17-7 23-3 17-1 16v461l2 23 5 25 5 15 10 26 6 23 1 5v8l-4 8-8 7-5 2-34 1h-188l-7-3-9-6-4-7-1-3v-9l6-10 16-17 14-13 10-8 6-5 9-12 7-14 5-18v-22l-5-16-9-19-12-22-20-40-15-34-13-33-12-33-12-39-11-41-9-41-8-46-5-39-4-43-2-60v-27l2-58 3-38 3-28 8-53 12-60 12-49 14-49 14-43 10-27 3 1 8 15 12 18 9 12 11 13 18 20 13 12 13 11 17 13 21 14 15 9 16 9 16 8 15 7 20 8 20 7 15 5 31 8 14 4 17 17 17 12 17 9 18 6 15 3 8 1h23l19-3 21-7 16-8 16-11 13-12 5-6 13-4 32-8 25-8 27-10 26-12 20-10 25-15 12-8 19-14 13-11 11-9 19-19 9-11 11-13 12-17 12-20z" fill="#E8A154"/>
<path transform="translate(901,40)" d="m0 0h35l28 1h114l32-1h24l23 2 24 4 26 7 22 8 20 9 9 5 1 3v11l4 16 8 14 9 9 13 10 13 12 8 10 10 16 8 19 4 14 4 25 2 43 4 48 7 56 6 39 8 46 12 57 13 51 13 43 10 28 11 27 11 23 11 19 10 14 12 14 11 10-1 6-6 13-7 12-8 11-9 10-6 7-8 7-14 11-15 10-25 14-15 8-19 8-2-1 7-15 6-19 5-25 1-12v-21l-2-18-6-26-8-21-8-16-10-17-13-17-11-12-14-14-14-11-14-10-15-9-22-12-18-11-12-9-11-9-13-12-11-12-11-14-11-16-10-17-9-17-11-27-7-21-8-31-6-24-8-16-7-10-7-7-14-9-13-5-8-2-9-1h-10l-16 3-14 6-11 8-5 4-8 10-7 12-4 11-9 39-9 29-10 25-8 16-9 17-8 12-10 14-9 11-12 13-9 9-11 9-15 11-20 12-24 13-21 14-10 8-14 12-11 11-9 11-10 13-11 18-8 16-8 21-4 15-4 23v37l5 27 7 21 6 13v1l-7-1-26-12-23-13-16-10-13-10-10-9-8-7-9-10-9-13-9-16-5-13 6-7 8-7 8-9 12-17 10-18 8-16 9-20 11-29 12-37 11-39 10-42 7-32 8-43 8-50 4-29 2-21 2-13 2-27 2-20 1-33 3-24 3-15 5-16 7-16 9-14 9-11 8-8 14-11 11-10 8-13 5-16 1-12 1-5 16-8 24-10 19-6 26-6 21-3z" fill="#E8A154"/>
<path transform="translate(1007,1281)" d="m0 0h25l25 4 17 5 17 8 12 8 14 12 7 7 11 15 9 16 7 19 3 16 1 8 1 445-1 30-3 20-6 20-10 26-6 21-2 11-6 3-23 6-27 5-27 3h-50l-28-3-34-7-17-5-3-3-6-25-8-23-7-18-4-16-2-21v-464l2-21 6-20 8-17 11-16 9-10 9-9 14-10 12-7 19-7 23-5z" fill="#F2DACB"/>
<path transform="translate(1017,363)" d="m0 0 13 1 10 5 8 8 4 8 6 25 6 24 11 33 9 21 8 17 13 23 13 19 14 18 16 17 9 9 11 9 14 11 17 11 24 13 17 10 14 10 10 8 10 9 10 10 13 17 8 13 8 15 8 24 3 14 1 8v29l-2 14-5 17-5 12-9 17-11 14-7 8-11 9-15 11-19 10-24 8-16 3h-26l-13-2-18-5-18-8-19-11-12-9-11-9-10-9-14-14-9-11-10-13-3-7v-73l1-2 18-6 17-9 14-10 15-15 10-14 8-15 6-19 1-7v-23l-4-13-6-9-8-7-10-5-15-3h-18l-27 2h-40l-25-2h-19l-16 3-10 5-9 8-6 11-3 13v18l4 18 6 15 6 11 9 12 11 12 12 10 19 11 18 7 2 2v80l-6 9-11 14-8 8-6 7-8 7-9 8-15 11-13 8-16 8-12 5-17 5-13 2h-24l-13-2-21-6-16-7-15-9-14-11-12-11-12-15-10-17-6-15-3-10-3-14-1-8v-25l2-14 5-19 6-16 9-17 8-12 11-14 11-12 10-9 16-12 16-10 18-10 19-11 16-11 14-11 12-11 17-17 9-11 13-17 12-19 12-22 10-22 9-24 8-26 9-39 4-9 6-8 8-6 5-2z" fill="#F2DACA"/>
<path transform="translate(1531,1272)" d="m0 0 23 2 27 5 21 6 16 7 17 9 15 11 14 14 10 14 9 16 7 19 5 19 4 27v53l-3 26-6 36-7 31-9 33-11 36-9 25-15 36-14 33-14 34-5 11-13 31-14 34-6 13-13 31-4 10-1 4v10l5 8 7 4 3 1 37 1 22 3 21 6 16 7 9 6 10 9 7 10 4 10 3 14v14l-2 6-64 1h-168l-1-3 3-7v-26l-6-15-8-12-9-10-7-8-15-14-11-9-7-6-7-10-2-7v-16l5-12 12-23 10-19 14-28 9-21 6-13 16-40 13-37 12-39 7-25 11-47 9-48 3-22 5-41 2-30 2-23z" fill="#E8A154"/>
<path transform="translate(507,1272)" d="m0 0 4 1-1 26v93l4 56 5 43 6 39 8 41 8 34 10 36 10 32 11 31 13 33 11 26 12 26 16 32 18 34 4 10 1 4v7l-4 13-6 8-9 9-11 9-13 12-7 7-9 11-7 10-5 10-3 12v16l3 11v3l-6 1h-225l-3-3v-18l3-15 7-14 8-10 11-8 14-7 18-6 22-4 30-2h17l8-4 5-7 2-7-3-12-20-47-17-41-15-35-15-36-20-47-11-27-12-35-9-30-9-35-7-33-5-35-2-18-1-18v-21l2-21 4-22 6-21 5-12 7-14 12-17 6-7 8-7 13-10 16-9 19-8 24-7 25-4z" fill="#E8A154"/>
<path transform="translate(686,61)" d="m0 0h38l9 3 6 7 2 6v10l-4 7-12 10-11 9-9 9-11 14-7 10-10 19-7 19-5 18-4 27-3 51-3 37-5 42-8 54-9 50-10 48-12 48-12 41-14 39-11 25-8 16-11 18-9 11-8 8-10 6-9 1-8-4-3-5v-14l5-35 3-20 2-18 1-25-2-23-3-20-7-26-8-20-8-17-10-17-15-22-14-17-7-8-5-5v-2h-2l-7-8-7-7-9-11-9-13-9-17-5-15-3-14-1-10v-15l2-15 5-19 7-18 8-16 12-20 10-13 11-14 12-13 11-12 20-18 16-13 16-12 24-16 15-9 23-13 19-9 19-8 23-8 23-6z" fill="#E8A154"/>
<path transform="translate(1316,61)" d="m0 0h39l21 3 24 6 25 9 17 7 16 8 21 11 23 14 16 11 19 14 16 13 13 12 8 7 16 16 9 11 11 13 14 20 12 22 6 13 6 18 3 13 2 13v20l-3 17-5 15-8 16-10 16-10 11-7 8-7 7-7 8-11 12-13 17-11 16-11 19-10 21-8 22-5 20-4 26v44l4 33 6 39v13l-5 6-7 3-8-1-9-5-10-9-8-10-8-13-11-21-11-26-10-28-10-31-10-36-12-51-10-50-8-47-5-36-4-34-3-31-3-53-2-24-5-24-5-16-9-21-10-17-11-14-12-13-11-9-10-8-5-6-1-2v-12l4-8 6-5z" fill="#E8A154"/>
<path transform="translate(1728,704)" d="m0 0 5 2 16 9 17 12 15 13 9 9 9 11 9 12 12 21 10 24 6 20 5 18 4 7 10 6 5 1h7l9-3 4 1 8 31 4 23 3 28v39l-3 27-5 26-7 24-6 17-7 17-10 19-8 14-10 15-18 24-4 10v7l4 10 5 6 10 7 1 4-10 8-11 10-19 14-17 11-17 10-29 15-25 11-12 5-5-1-11-12-13-11-15-10-23-12-25-9-23-6-26-4-30-3 2-5 15-14 8-7 14-14h2l1-3 22-22 7-8 9-10 9-11 13-16 14-19 12-17 12-19 9-15 11-19 11-23 10-22 10-27 9-29 6-26 4-22 4-33 1-22v-23l-1-23-4-33-5-27-3-14z" fill="#E8A154"/>
<path transform="translate(1019,874)" d="m0 0 4 2 15 16 17 17 11 9 13 10 18 12 2 3 12 79 1 16-4 20-8 19-10 15-10 11-8 6-14 8-14 5-6 2-7 1h-26l-16-4-12-5-13-8-10-8-8-9-9-14-5-10-3-10-2-8-1-7v-19l3-22 6-36 3-20 4-5 14-9 11-8 13-10 13-12 20-20z" fill="#FD645E"/>
<path transform="translate(664,901)" d="m0 0 6 2 29 12 51 17 26 14 17 8 5 5 14 28 13 21 14 19 9 10 7 8 17 17-3 1-24-9-24-10-17-8-18-10-19-12-18-13-16-13-13-12-16-16-9-11-11-14-10-15-9-16z" fill="#0F94DB"/>
<path transform="translate(1373,902)" d="m0 0 2 1-9 16-12 18-11 14-22 24-14 13-11 9-16 12-20 13-16 9-21 11-23 10-21 8h-4l2-4 10-9 7-8 11-13 13-18 13-21 8-15 8-16 8-5 22-11 13-8 43-14 36-14z" fill="#0F94DB"/>
<path transform="translate(954,636)" d="m0 0h24l31 2h24l33-2h20l4 3v12l-4 14-5 10-9 12-12 12-16 10-14 5-5 1h-9l-13-3-14-7-13-10-10-10-8-12-6-15-1-5v-13l1-3z" fill="#3D2D25"/>
<path transform="translate(1230,373)" d="m0 0h21l16 4 16 8 11 9 9 11 8 16 4 13 1 7v8l-4 10-7 6-6 2h-7l-8-3-5-5-3-5-3-17-5-10-4-5-10-6-5-2h-15l-10 4-8 7-6 9-4 20-5 8-6 4-3 1h-11l-8-5-5-6-1-3v-18l5-17 7-13 9-10 8-8 14-8 10-4z" fill="#020202"/>
<path transform="translate(790,373)" d="m0 0h20l14 3 17 8 10 8 8 8 7 11 4 8 4 13 1 6v14l-4 8-5 4-6 3h-9l-9-4-5-6-2-7-2-12-6-12-9-8-10-4h-15l-14 7-6 7-4 8-4 19-4 6-5 4-5 2h-10l-8-5-5-6-2-6v-9l3-16 6-14 7-10 9-10 11-8 12-6z" fill="#030202"/>
<path transform="translate(1143,960)" d="m0 0 10 1 12 2 11 1h19l1 3-11 18-12 16-11 13-2 3h-2l-2 5-3 2-2-7-8-50z" fill="#3D2D25"/>
<path transform="translate(892,960)" d="m0 0h2l-2 19-5 33-2 5-4-2-10-12-14-19-10-17v-2l28-2z" fill="#3D2D25"/>
</svg>
