<?xml version="1.0" encoding="UTF-8"?>
<svg version="1.1" viewBox="0 0 2048 2048" width="1280" height="1280" xmlns="http://www.w3.org/2000/svg">
<path transform="translate(352)" d="m0 0h20l13 8 7 7 9 11 10 10 14 11 12 8 21 12 19 9 28 10 19 6 42 11 30 10 23 10 22 12 16 10 15 11 10 8 10 9 8 7 10 10 7 8 5-1 33-11 35-9 34-7 31-5 35-4 28-2 23-1h90l44 3 44 5 35 6 36 8 32 9 26 9 4-1 7-8 5-6h2l1-3 8-7 10-9 17-13 18-12 21-12 21-10 26-10 28-8 38-10 31-11 23-10 18-10 12-8 12-9 10-9 11-11 9-11 10-7 6-3h19l13 7 5 4 6 9 4 10 8 38 8 49 4 34 3 42 1 37-2 38-3 33-5 28-7 30-10 30-11 25-11 20-13 19-13 16-6 7-8 7-7 7-13 10-14 10-6 2 11 28 11 27 13 30 8 17 11 19 10 14 14 14 13 8 16 7 18 5 8 6 3 6 1 9-4 9-11 10-26 17-12 7-1 1 20 2 47 7 50 9 39 8 35 8 10 5 4 5 2 4v12l-5 8-5 4-6 2-12-1-36-8-55-11-55-9-60-8-5-1 5 5 18 11 14 6 23 7 6 4 5 8 1 9-4 10-7 9-9 10-8 8-14 11-13 8-4 2 12 6 50 20 28 12 29 13 30 14 17 8 19 10 11 6 5 4 4 7v11l-4 7-7 6-7 2-8-1-12-5-15-8-19-9-16-8-20-9-15-7-42-18-43-17-52-19h-9l-21 4h-5l5 5 9 8 14 10 16 9 12 5 7 6 4 9v7l-4 8-9 10-3 4h-2v2h-2v2l-8 7-10 9-14 11-13 10-20 14-20 12-17 10-28 15-30 14-37 15-12 4v2l12 15 13 18 13 19 12 19 14 25 15 31 11 28 9 27 7 27 5 27 3 23 2 29v27l-3 39v6l13 12 11 9 6 6h2l3-6 11-19 12-23 11-25 9-24 8-24 10-38 7-36 5-36 5-59 4-20 6-15 8-15 8-10 9-10 9-8 15-10 15-7 17-5 14-2h22l18 3 15 5 16 8 14 10 11 10 11 14 9 15 7 18 3 13 1 8v24l-3 17-9 31-15 46-15 39-13 30-14 30-11 22-13 23-16 27-22 33-13 18-14 18-11 13-9 11-16 17-9 9-7 8-12 11-1 1 1 12 2 16v31l-2 16-5 20-7 20-8 17-11 18-10 14-8 10-9 10-7 8-14 14-8 7-13 11-19 14-33 22-17 10-1 2 4 2 9 10 8 13 7 16 3 12 1 13-2 13-5 12-8 11-7 7-14 8-15 5h-340l-23-7-16-8-14-10-10-10-8-11-2-3h-2l-4 7-7 9-9 9-10 7-15 8-14 5-14 4h-338l-19-7-10-7-5-5-7-8-7-14-2-8v-17l4-17 5-12 8-13 9-11 4-3v-2l-17-10-30-20-16-12-11-9-14-12-26-26-9-11-12-16-10-16-10-19-8-21-6-25-2-15v-28l3-21 5-20 8-21 8-17 10-17 8-12 8-11 11-14 13-15 32-32 8-7 11-9 1-3-2-17-2-30v-22l2-29 5-35 6-27 7-25 8-23 12-29 10-21 13-23 12-20 16-24 14-18 12-16-24-9-33-14-30-14-23-13-18-10-17-11-16-11-15-11-16-13-12-11-8-7-7-7-9-11-2-5v-10l4-8 5-4 20-9 17-11 13-11 6-5 1-2-11-1-4-1h-8l-31 11-36 14-30 12-37 16-33 15-29 14-30 15-12 2-9-3-6-7-3-8 1-8 5-8 9-6 15-8 52-25 24-11 45-19 28-11 15-6h3l-3-3-11-6-17-12-11-10-15-15-7-11-3-8 2-10 5-7 8-4 23-7 19-9 12-8-1-1-57 8-48 8-45 9-41 9-13 1-7-4-6-7-2-6 1-10 4-6 6-5 22-6 57-12 45-8 38-6 20-3-4-3-14-8-22-15-10-8-5-10v-8l5-10 6-4 24-7 16-8 13-10 10-11 11-16 14-27 11-24 11-27 14-35-1-4-15-10-16-13-13-12-11-12-13-17-10-15-13-24-10-24-8-24-7-28-6-36-3-31-1-15v-56l4-51 5-38 7-41 8-37 4-10 9-10 8-5z" fill="#010101"/>
<path transform="translate(397,76)" d="m0 0 9 6 11 8 24 13 19 9 25 10 30 9 39 10 29 10 20 9 17 9 20 13 17 13 15 14 13 13 12 15 10 5h7l20-7 34-11 27-7 38-8 43-6 30-3 16-1 35-1h56l31 1 36 3 34 4 31 5 40 9 34 10 31 11 4 1h7l8-4 10-11 9-11 16-16 14-11 15-11 20-12 16-8 18-8 33-11 43-11 27-9 22-9 16-8 17-9 19-12 3-1 2-4h2l-2 5-9 11-12 16-8 10h-2l-2 4-9 10-15 15h-2l-2 4-14 12-18 13-19 11-19 9-31 12-21 11-12 9-12 11-8 11-8 16-4 16-1 9v9l4 22 6 16v5l-17 10-5 5-3 7v7l4 15 8 20 7 14 8 12 13 16 12 11 15 10 15 7 13 4 11 2 19 1 7-3 5-5 3-6v-10l-3-6-5-5-4-2-22-3-13-4-11-6-9-7-9-9-10-14-8-16-3-7 1-5 16-9 10-9 2-6v-7l-13-26-4-12-1-5v-14l3-10 4-8 12-13 14-9 15-7 29-11 19-9 17-10 17-12 14-11 15-13 21-21 9-11 13-15 14-19 14-21h2l4 20 5 39 3 28 1 17v68l-3 31-5 30-6 25-9 27-9 20-10 19-8 12-9 12-2 3h-2l-2 4-16 16-13 10-17 11-14 9-4 5-3 6 1 10 11 28 17 41 13 31 10 21 9 16 14 21 13 15 11 10 14 9 3 2-1 3-15 8-25 10-23 5-15 2-4 3h-28l-41-2-29-1h-111l-12 1-8 4-4 5-2 5v10l3 6 5 5 4 2h108l62 2 34 2 22 2 5 5 8 10 12 14 11 10 11 8 15 9 8 4 5 2v3h-2v2l-15 10-23 12-16 6h-7l-36-12-40-12-54-15-48-12-43-9h-12l-6 4-5 6-1 3v12l4 6v2l4 2 19 5 49 11 43 11 35 10 8 2v2l-5 4-2 6v9l5 10 12 14 9 10 7 8 13 12 17 13 10 7-6 7-14 11-19 14-15 10-21 13-23 13-30 15-28 12-13 5-24 9-21 7-44 12-43 10-36 7-46 7-35 4-48 4-39 1h-70l-37-1-59-5-40-5-49-8-42-9-43-11-37-11-33-12-26-11-26-12-19-10-20-11-22-14-16-11-19-14-12-10-5-4v-3l15-10 14-12 12-11 10-10 9-11 8-10 5-10-1-9-2-4v-3l23-7 59-16 46-11 32-7 8-4 4-5 2-5v-9l-4-8-5-4-4-2h-12l-38 8-49 12-51 14-46 14-47 15-10-2-19-7-16-8-12-7-11-8-1-3 21-11 13-9h2v-2l11-9 11-11 11-14 6-6 55-4 46-2 39-1h103l6-4 4-5 2-5v-9l-5-8-4-4-6-2-11-1h-120l-64 3-29 2h-11l-1-3-9-3-18-2-17-4-26-11-14-7 1-3 13-9 14-12 12-13 16-24 9-16 13-28 19-46 15-37 4-11v-9l-5-8-7-6-20-12-14-11-10-9-14-14-13-17-11-18-8-16-8-19-7-21-7-30-5-33-2-22-1-17v-41l2-39 5-43 5-29 2-6 4 4 13 19 13 17 8 10 12 14 12 12 7 8 20 18 20 15 21 13 19 10 31 12 18 8 11 7 10 8 9 13 3 8 1 6v10l-4 16-8 16-6 11-1 6 3 9 5 6 18 11 4 3-3 9-8 16-9 13-10 11-11 8-12 6-16 4-17 2-5 3-5 6-2 5v8l4 8 6 5 3 1h21l18-4 13-5 12-6 12-9 10-9 7-7 11-15 8-14 8-17 5-15 2-8v-10l-4-8-10-7-11-6 1-6 6-17 3-15v-20l-4-17-5-11-7-12-12-13-14-11-16-9-18-8-26-10-16-8-14-8-17-12-13-11-12-11-18-18-7-8-14-18-14-19z" fill="#F8BA59"/>
<path transform="translate(1304,1139)" d="m0 0 5 2 7 7 13 17 10 13 16 23 9 15 12 21 8 16 9 19 11 29 8 27 6 25 5 32 2 23v44l-2 24-5 30-7 31-9 30-9 26-11 26-14 30-13 24-10 17-13 21-15 22-13 18-13 17-13 16-11 13-9 11-29 31-39 39-6 12-2 8v8l3 12 5 9 5 6 11 7 13 7 9 7 8 8 7 12 4 13-1 8-5 7-9 5-5 1h-150l-20-3-14-5-9-6-8-7-7-10-7-15-4-13-4-21v-65l4-30 6-32 8-36 11-41 10-34 14-43 16-45 19-49 18-42 13-29 2-7v-7l-4-8-6-5-7-2-9 1-6 3-6 10-8 18-5 13-5 10-7 17-5 14-3 8h-2l-2 9-4 11h-2l-2 10-4 9-8 24-4 11h-2l-1 8-2 6h-2l-2 9-9 27-3 12-2 4-3 13h-2l-1 10-4 14h-2l-1 8-4 17-2 6h-2l-3-12-2-10-2-5-4-17-11-36-15-45-8-22-3-9-18-47-17-41-14-33-8-17-5-5-9-3-9 1-8 5-4 8v9l5 13 16 36 16 39 13 34 16 44 14 42 13 44 11 41 9 43 6 37 2 17 1 15v37l-3 21-5 19-5 13-6 10-9 10-9 7-11 5-16 4-10 1h-152l-10-5-5-6-1-3v-8l3-11 6-11 9-10 11-8 20-11 7-7 7-14 1-4v-15l-6-14-8-10-17-16-17-17-7-8-11-11-7-8-13-15-11-13-10-13-14-18-10-14-15-22-11-17-9-15-14-25-8-15-4-10-6-12-10-23-10-27-9-30-7-29-6-35-2-20-1-19v-15l1-25 3-25 5-28 8-31 8-24 8-20 12-26 13-24 15-24 14-20 13-17 9-11 8-9h6l8 5 7 10 6 9 11 13 12 12 17 13 12 8 19 11 23 11 26 10 25 8 38 9 18 3-1 5-7 19-3 15-1 9v14l2 15 5 16 8 16 9 13 13 14 13 9 17 9 13 4 13 3h30l17-4 12-5 9-4h2v-2l7-4h2v-2l3-1 4-4 8-7 10-13 8-14 5-11 4-14 1-6v-29l-4-19-6-16-1-6 27-5 32-8 33-11 26-11 21-11 16-10 16-12 14-12 12-13 12-17 4-6 6-5z" fill="#F8BA59"/>
<path transform="translate(1304,1139)" d="m0 0 5 2 7 7 13 17 10 13 16 23 9 15 12 21 8 16 9 19 11 29 8 27 6 25 5 32 2 23v44l-2 24-5 30-7 31-9 30-9 26-11 26-14 30-13 24-10 17-13 21-15 22-13 18-13 17-13 16-11 13-9 11-29 31-39 39-6 12-2 8v8l3 12 5 9 5 6 11 7 13 7 9 7 8 8 7 12 4 13-1 8-5 7-9 5-5 1h-150l-20-3-14-5-9-6-8-7-7-10-7-15-4-13-4-21v-65l4-30 6-32 8-36 11-41 10-34 14-43 16-45 19-49 18-42 13-29 2-7v-7l-4-8-6-5-11-3-4-17-5-12-8-15-10-13-10-10 10-14 9-19 4-14 1-6v-29l-4-19-6-16-1-6 27-5 32-8 33-11 26-11 21-11 16-10 16-12 14-12 12-13 12-17 4-6 6-5z" fill="#F8BA59"/>
<path transform="translate(925,691)" d="m0 0h16l25 5 14 3h15l33-7 7-1h15l10 4 8 7 5 8 3 10v17l-4 17-6 15-10 17-11 13-11 11-15 10-8 4 2 9 8 16 9 10 10 8 15 7 20 5 8 1h19l12-3 10-5 10-9 8-13 6-16 3-14 1-13 4-7 7-6 11-2 8 3 7 7 3 9-2 20-4 17-6 16-7 14-9 12-11 11-14 9-11 5-19 5-8 1-10 40-8 21-9 19-10 17-13 15-12 11-14 9-14 6-15 3h-15l-16-3-16-7-13-9-12-11-8-9-9-13-12-23-7-17-6-19-7-29-1-1-16-3-13-4-12-6-11-8-6-5-9-11-8-13-7-16-5-18-3-20v-7l3-8 6-7 9-3 9 1 6 4 5 6 2 6 2 18 5 17 7 14 8 10 11 7 11 4 5 1h17l15-2 17-5 16-8 9-7 1-2h2l2-4 8-13 4-11-1-5-14-8-9-7-10-9-12-16-8-14-6-14-4-17v-19l3-10 6-9 8-6z" fill="#010101"/>
<path transform="translate(512,1534)" d="m0 0h3l8 30 14 41 12 29 14 30 12 22 13 23 13 21 16 24 10 14 12 16 10 13 13 16 9 11 13 14 9 11 15 16 34 34 3 2-1 3-18 10-13 10-10 10-7 10-6 10-6 17-3 17 1 12 1 7-1 1h-106l-8-4-6-7-1-2v-10l5-15 8-11 7-7 8-7 6-8 3-9v-10l-4-11-8-9-25-14-22-14-18-13-16-12-14-12-15-14-11-12-11-14-9-13-9-16-8-18-5-17-3-17v-29l4-20 8-24 8-17 13-21 11-15 8-10 13-15z" fill="#F7BA59"/>
<path transform="translate(1453,1534)" d="m0 0 5 2 8 8 2 1v2h2v2h2v2h2v2h2l7 8 12 14 9 11 8 11 11 17 8 14 10 24 5 16 3 21v19l-3 19-6 20-9 20-9 15-10 14-11 13-7 8-14 14-8 7-16 13-17 12-15 10-18 11-25 15-7 8-3 9v15l6 12 16 15 6 7 7 14 2 7-1 9-6 8-7 4-5 1h-104l2-10v-14l-4-17-7-17-8-12-8-10-14-11-13-8-9-5 1-4 8-8h2v-2l8-7 7-7 7-8 17-17 7-8 12-14 10-11 11-14 12-15 9-12 13-18 20-30 11-18 14-24 17-33 12-26 11-28 12-36 7-26z" fill="#F7BA59"/>
<path transform="translate(1610,88)" d="m0 0h2l4 20 5 39 3 28 1 17v68l-3 31-5 30-6 25-9 27-9 20-10 19-8 12-9 12-2 3h-2l-2 4-16 16-13 10-17 11-14 9-3 2-9-3-10-6-6-4-5-5-1-3v-10l-3-6-5-5-4-2-22-3-13-4-11-6-9-7-9-9-10-14-8-16-3-7 1-5 16-9 10-9 2-6v-7l-13-26-4-12-1-5v-14l3-10 4-8 12-13 14-9 15-7 29-11 19-9 17-10 17-12 14-11 15-13 21-21 9-11 13-15 14-19 10-15z" fill="#F57F7E"/>
<path transform="translate(356,88)" d="m0 0 4 4 13 19 13 17 8 10 12 14 12 12 7 8 20 18 20 15 21 13 19 10 31 12 18 8 11 7 10 8 9 13 3 8 1 6v10l-4 16-8 16-6 11-1 6 3 9 5 6 18 11 4 3-3 9-8 16-9 13-10 11-11 8-12 6-16 4-17 2-5 3-5 6-2 5v8l2 6-9 4-15 9-10 2-9-6-19-12-13-10-10-9-14-14-13-17-11-18-8-16-8-19-7-21-7-30-5-33-2-22-1-17v-41l2-39 5-43 5-29z" fill="#F57F7E"/>
<path transform="translate(1689,1161)" d="m0 0 14 1 13 3 16 8 9 6 11 11 10 16 5 15 2 13v9l-3 17-13 42-14 41-12 30-13 30-14 29-14 27-16 27-15 24-8 11-12 17-13 17-9 11-11 13-9 10-7 8-13 13-2 3-4-2-14-24-13-19-11-14-6-8 1-5 9-14 12-21 10-19 13-29 11-29 8-24 9-34 7-34 4-24 4-31 4-50 3-16 5-12 7-12 9-10 12-9 14-7 16-4z" fill="#F7B959"/>
<path transform="translate(1066,1386)" d="m0 0 4 1 10 10 9 13 10 19 5 18v5l-11 5-6 10-8 18-5 13-5 10-7 17-5 14-3 8h-2l-2 9-4 11h-2l-2 10-4 9-8 24-4 11h-2l-1 8-2 6h-2l-2 9-9 27-3 12-2 4-3 13h-2l-1 10-4 14h-2l-1 8-4 17-2 6h-2l-3-12-2-10-2-5-4-17-11-36-15-45-8-22-3-9-18-47-17-41-14-33-8-17-5-5-8-4-1-2 2-11 4-12 10-19 7-10 9-10 6-1 3 1 7 8 13 10 19 10 13 4 13 3h30l17-4 12-5 9-4h2v-2l7-4h2v-2l3-1 4-4 8-7z" fill="#EDD7C9"/>
<path transform="translate(738,1160)" d="m0 0h8l12 3 36 6 46 6 42 4 35 2 16 1 36 1h24l38-1 65-4 48-5 29-4 36-6 14-3h6l-1 3-17 12-13 8-16 8-26 11-30 10-27 7-27 5-18 3h-6l-9-6-17-8-13-4-14-2h-23l-16 3-15 5-15 8-6 4-12-1-24-4-27-6-25-7-23-8-23-10-23-12-12-8-12-9z" fill="#0797E3"/>
<path transform="translate(1151,570)" d="m0 0h21l16 4 16 8 10 8 8 8 8 13 6 14 2 9 1 14-4 10-7 6-5 2h-8l-10-4-5-8-3-16-4-10-7-9-10-6-12-3-10 1-10 4-8 6-7 10-3 9-2 14-6 8-7 4-7 1-9-3-7-6-3-8v-10l3-16 7-16 7-10 7-8 12-9 14-7z" fill="#010101"/>
<path transform="translate(800,570)" d="m0 0h19l14 3 12 5 11 7 10 9 7 8 8 15 4 12 1 5v18l-3 6-8 7-3 1h-10l-9-4-4-5-2-7-2-13-6-12-5-6-10-6-12-3-10 1-10 4-9 7-6 9-3 10-2 13-6 8-7 4h-11l-8-4-5-6-2-7v-9l3-16 7-16 7-10 7-8 12-9 14-7 11-3z" fill="#010101"/>
<path transform="translate(987,874)" d="m0 0 21 21 15 10 17 8 18 5 1 4-4 17-7 19-3 3-5-5-9-6-10-6-14-5-13-2h-13l-11 2-15 5-15 9-7 5-4 4-5-12-5-17-2-8v-7l15-4 19-8 17-11 16-16z" fill="#765B4D"/>
<path transform="translate(969,1248)" d="m0 0h29l12 4 13 7 4 3v2l5 2 8 9v3h2v3h2l5 11v3l-12 1h-41l-77-1 1-7 9-15 7-7h2l1-3h3v-2h3v-2l15-8z" fill="#FDF93E"/>
<path transform="translate(919,1335)" d="m0 0h44l2 12 5 7 8 4h9l10-5 4-7 2-11h45l-1 6-7 12-11 12-10 8-11 6-15 4h-19l-15-4-13-7-8-6-7-8-8-13-4-8z" fill="#FCF640"/>
<path transform="translate(940,732)" d="m0 0 25 5 15 2h17l23-4 15-3 1 2-4 13-6 11-8 11-11 11-16 8-10-1-9-5-10-8-10-12-9-17z" fill="#765B4D"/>
<path transform="translate(986,976)" d="m0 0 13 2 12 6 11 10 3 2-1 5-7 8-10 7-8 4-5 1h-13l-13-5-9-7-5-5-4-5 2-4 3-1 2-4 12-9 10-4z" fill="#EF7E7B"/>
<path transform="translate(1047,1289)" d="m0 0 2 3v3l-12 1h-41l-76-1v-1l10-1h116z" fill="#E3AB57"/>
<path transform="translate(1569,76)" d="m0 0h2l-2 5-6 7h-2l4-8h2z" fill="#E7C64D"/>
</svg>
