<?xml version="1.0" encoding="UTF-8"?>
<svg version="1.1" viewBox="0 0 2048 2048" width="1280" height="1280" xmlns="http://www.w3.org/2000/svg">
<path transform="translate(1597,190)" d="m0 0h21l40 3 29 5 19 5 26 9 27 11 33 16 22 13 20 14 14 11 14 12 13 12 10 10 7 8 12 14 15 20 12 18 9 15 12 22 12 27 9 25 8 27 6 25 8 46 5 38 4 39 3 48v85l-3 62-3 40-6 56-5 29-7 32-10 36-8 25-8 23-11 28-15 33-17 34-14 24-13 22-10 15-11 16-14 19-10 13-14 17-9 11-16 17-9 10-31 31-8 7-13 12-11 9-17 14-20 15-18 13-23 15-21 13-21 12-22 12-22 11-34 15-36 14-20 8-14 7-12 8-14 12-7 7-11 14-13 19-2 3v3l67 18 35 11 25 9 25 12 11 5 26 4 39 2h33l24-2 18-6 15-6 17-4 15-2h15l25 4 21 7 21 10 12 8 13 10 8 7 1 4-14-5-19-7-15-4h-11l-5 3-6 8-8 7-5 2h-19l-9-3h-12l-10 2-13 6-8 3-12-2-5-1h-12l-7 4-9 7-11 3-12 1-36 1h-69l-32-1-49-4-35-5-28-6-18-5-12-4-1 11 11 3 32 10 30 7 35 5 26 3 24 5 26 7 33 11 15 7 11 6h10l32-2h47l22 2 11 3 7 3 38-3h21l23 2 18 3 17 6 15 8 10 8 8 8 8 13 5 13 4 17v5l-4-1-11-10-16-12-17-10-15-6-16-4-12-2v9l-2 9-4 6-4 3-8 1-10-3-1-1h-10l-27 4-10 1h-28l-14-2-8-2h-7l-6 2h-14l-26-7-44-2-34-4-23-5-99-2-49-2-43-3-34-4-24-4-21-5-16-6-10-7-8-11-6-13-4-15v-21l2-9-5-4-7-11-11-19-8-10-9-8-12-6-11-3-34-2-19-5-17-8-11-7-6-2-33-3-63-6-53-4-57-3h-47l-61 6-20 1h-26l-21-1-34-5-36-5h-26l-40 4-17 4-30 10-29 8-31 6-13 2h-31l-15-3-52-3-73-2-77-3-66-2-53-2-15-1-7-4-6-7-2-5v-11l4-7 7-6 17-8 39-15 115-49 46-20 45-20 42-19 26-12 68-32 82-41 22-12 29-16 20-12 16-10 17-11-28-11-23-10-25-12-20-11-16-11-17-9-27-11-22-7-18-5-4-4 1-5 9-8 16-11 13-8 23-12 25-10 31-9 43-10 24-7 24-9 16-8 17-9 19-12 21-16 13-11 11-9 10-9 11-9 10-9 11-9 14-12 13-10 16-12 15-10 16-10 17-10 21-11 32-14 29-14 21-11 23-14 19-12 32-21 17-11 32-21 15-10 24-15 17-11 19-12 23-14 25-15 28-16 36-20 42-22 38-19 23-11 11-5 6-10 8-16 1-3v-7l-6-27-4-28-3-36v-60l3-48 1-17-8-26-5-22-2-11-2-23 1-16 2-16 6-16 8-12 9-10 17-17 16-12 16-10 16-9 23-10 25-8 27-6 14-2z" fill="#81B051"/>
<path transform="translate(1597,190)" d="m0 0h21l40 3 29 5 19 5 26 9 27 11 33 16 22 13 20 14 14 11 14 12 13 12 10 10 7 8 12 14 15 20 12 18 9 15 12 22 12 27 9 25 8 27 6 25 8 46 5 38 4 39 3 48v85l-2 44h-1l-1-17 1-16-2-17-4-1 1 5-1 5-12 3-11 1h-63l-23-1-15 1-16 4-8 4-8 5-3 1v2l-7 6-1 3h-2l-2 5-4 9-4 14-4 6-14 2h-7l-43-7-25-5-27-6-7-1h-16l-12 4-12 7-11 10-7 8-8 8-5 2-19 1h-15l-33-2-25-3-21-5-14-6-9-5-10-7-12-12-9-14-6-16-10-35-5-16-8-16-10-14-8-8v-2h-2l-6-7v-2l-5-2v-5l4-6 1-3 5-5 8-16 4-9v-7l-6-27-4-28-3-36v-60l3-48 1-17-8-26-5-22-2-11-2-23 1-16 2-16 6-16 8-12 9-10 17-17 16-12 16-10 16-9 23-10 25-8 27-6 14-2z" fill="#9ECC70"/>
<path transform="translate(1461,359)" d="m0 0h15l19 3 20 6 20 9 20 11 19 13 16 13 10 9 11 11 12 16 8 15 2 7v12l-2 15-11 36-7 29-8 28-7 20-10 23-9 17-12 16-10 10-13 8-12 5-3 1h-14l-13-4-12-6-5-3-3 1-5 17-6 21-3 1-8-7-10-9-8-10-9-14-8-18-6-16-2-7-7-31-4-28-3-36v-60l3-48 2-26 6-16 7-13 9-10 8-5 15-5z" fill="#E77363"/>
<path transform="translate(1368,1706)" d="m0 0 11 3 32 10 30 7 35 5 26 3 24 5 26 7 33 11 15 7 11 6h10l32-2h47l22 2 11 3 7 3 38-3h21l23 2 18 3 17 6 15 8 10 8 8 8 8 13 5 13 4 17v5l-4-1-11-10-16-12-17-10-15-6-16-4-12-2v9l-2 9-4 6-4 3-8 1-10-3-1-1h-10l-27 4-10 1h-28l-14-2-8-2h-7l-6 2h-14l-26-7-44-2-34-4-23-5-99-2-49-2-43-3-34-4-24-4-21-5-16-6-10-7-8-11-6-13-4-15v-21l3-8 40 8 31 4 15 1h20l10-4 12-7 8-7z" fill="#C6C7C7"/>
<path transform="translate(1402,1603)" d="m0 0 24 7 45 12 35 11 25 9 25 12 11 5 26 4 39 2h33l24-2 18-6 15-6 17-4 15-2h15l25 4 21 7 21 10 12 8 13 10 8 7 1 4-14-5-19-7-15-4h-11l-5 3-6 8-8 7-5 2h-19l-9-3h-12l-10 2-13 6-8 3-12-2-5-1h-12l-7 4-9 7-11 3-12 1-36 1h-69l-32-1-49-4-35-5-28-6-18-5-9-3-3-6-4-13-7-13 1-4 9-10 7-9 13-18 11-16z" fill="#C6C7C7"/>
<path transform="translate(1760,324)" d="m0 0h19l13 4 11 6 10 9 9 11 7 15 4 15 1 9v15l-3 16-6 15-9 13-9 9-11 7-11 5-6 2h-19l-14-4-13-7-13-13-8-13-6-16-2-9v-25l4-17 5-12 7-11 8-9 10-7 10-5 5-2z" fill="#FBFBFB"/>
<path transform="translate(1619,529)" d="m0 0 1 2-2 12-5 21-8 28-7 20-10 23-9 17-12 16-10 10-13 8-12 5-3 1h-14l-13-4-12-6-6-7 1-9 5-8 7-14 3-3 2-5h2l2-4 3-5h2l2-5 6-7 6-2v-2l10-7 7-4 8-5 10-5 4-3h2l2-4 4-1v-2h2l1-2 8-6h2l1-3 7-6 4-4 1-3 6-5 6-8h2l2-6z" fill="#DB6458"/>
<path transform="translate(1458,337)" d="m0 0h17l22 4 21 7 25 12 19 11 16 11 12 9 16 13 11 9 15 14 8 9 6 11v11l-11 22h-1l-4-15-9-17-9-11-9-10-10-10-14-11-12-9-19-12-21-11-21-8-21-5-9-1h-15l-12 2-13 5-9 7-8 11-5 11-3 3h-2v-12l2-15 5-12 9-10 8-6 10-4z" fill="#FAFAFA"/>
<path transform="translate(1761,358)" d="m0 0h15l9 4 6 4 7 8 4 8 2 6v22l-5 13-9 10-9 6-8 2h-8l-10-3-8-6-7-8-5-10-2-9v-12l3-11 6-11 7-7z" fill="#60754C"/>
<path transform="translate(1829,1777)" d="m0 0h7l21 7 15 8 10 8 8 8 8 13 5 13 4 17v5l-4-1-11-10-16-12-17-10-15-6-16-4-11-2 1-7 8-20z" fill="#61774E"/>
<path transform="translate(1774,381)" d="m0 0h10l7 5 3 6v8l-3 6-5 5-3 1h-8l-6-3-5-6-1-9 3-7 6-5z" fill="#F4F5F4"/>
<path transform="translate(1817,1658)" d="m0 0 5 1 17 9 13 9 10 8 7 6 1 4-14-5-19-7-19-5-7-2 1-5z" fill="#6A8154"/>
<path transform="translate(1896,329)" d="m0 0 6 2 12 15 14 20 12 20 12 22 12 27 9 25 4 13v5l-4-4-3-10v-2l-3-5-1-4 1-3h-2l-4-9-3-5v-2l-2-1v-4l-2-1v-4h-2l-2-8h-2l-2-8h-2l-3-9-2-2v-4l-3-1-3-7-4-8-2-1-1-5-4-6-2-1v-3h-2l-4-7-7-9-7-8-1-3h-2z" fill="#84B354"/>
<path transform="translate(1402,379)" d="m0 0 3 1 2 5v25l-3-1-5-17-1-12z" fill="#83B253"/>
<path transform="translate(669,1324)" d="m0 0 8 1 38 9 6 1-1 2-9-1-29-7-13-4z" fill="#9ECD70"/>
<path transform="translate(1417,638)" d="m0 0 2 1 1 12-3 3-4-2 1-5z" fill="#8CBA5D"/>
<path transform="translate(1854,1679)" d="m0 0 8 6 7 6 1 4-7-2-5-8v-2l-4-2z" fill="#CCD1C8"/>
<path transform="translate(1398,292)" d="m0 0 2 1 1 7h-2v2l-3 1-2 3 1-7z" fill="#87B658"/>
<path transform="translate(1904,1842)" d="m0 0 2 4 1 10-4-1-2-3h4l-1-2z" fill="#A8C190"/>
<path transform="translate(1402,400)" d="m0 0 4 1 1 1v8l-3-1z" fill="#90BF61"/>
</svg>
